<?xml version="1.0" encoding="utf-8"?>
<!-- Generator: Adobe Illustrator 26.4.1, SVG Export Plug-In . SVG Version: 6.00 Build 0)  -->
<svg version="1.1" id="Calque_1" xmlns="http://www.w3.org/2000/svg" xmlns:xlink="http://www.w3.org/1999/xlink" x="0px" y="0px"
	 viewBox="0 0 28.41 31.06" style="enable-background:new 0 0 28.41 31.06;" xml:space="preserve">
<style type="text/css">
	.st0{fill:none;stroke:#E83C3C;stroke-width:0.75;stroke-linejoin:round;stroke-miterlimit:10;}
	.st1{fill:none;stroke:#E83C3C;stroke-width:0.75;stroke-linecap:round;stroke-linejoin:round;stroke-miterlimit:10;}
</style>
<g>
	<polygon class="st0" points="14.5,1.32 2.66,8.15 2.59,22.66 14.68,29.58 26.7,22.67 26.62,8.22 14.66,1.3 	"/>
	<polygon class="st1" points="26.7,22.68 23.07,20.42 23.07,20.41 14.65,29.54 14.66,29.56 6.25,20.53 6.14,20.57 2.62,22.62 
		6.22,20.54 2.72,8.21 2.66,8.15 14.63,5.02 14.65,5.02 26.62,8.24 26.6,8.25 23.1,20.41 23.09,20.41 6.23,20.52 6.25,20.51 
		14.66,5.03 14.67,5.04 14.62,1.3 14.66,5.06 23.07,20.42 	"/>
</g>
</svg>
