<?xml version="1.0" encoding="utf-8"?>
<!-- Generator: Adobe Illustrator 25.4.0, SVG Export Plug-In . SVG Version: 6.00 Build 0)  -->
<svg version="1.1" id="Calque_1" xmlns="http://www.w3.org/2000/svg" xmlns:xlink="http://www.w3.org/1999/xlink" x="0px" y="0px"
	 viewBox="0 0 64.6 64.3" style="enable-background:new 0 0 64.6 64.3;" xml:space="preserve">
<style type="text/css">
	.st0{fill:url(#SVGID_1_);}
	.st1{fill:#FFFFFF;}
</style>
<g>
	<linearGradient id="SVGID_1_" gradientUnits="userSpaceOnUse" x1="3.1471" y1="7.6235" x2="64.9906" y2="59.8563">
		<stop  offset="1.104800e-03" style="stop-color:#FFE184"/>
		<stop  offset="0.2094" style="stop-color:#FDBA37"/>
		<stop  offset="0.3765" style="stop-color:#F05477"/>
		<stop  offset="0.5238" style="stop-color:#ED3894"/>
		<stop  offset="0.7394" style="stop-color:#8D509F"/>
		<stop  offset="1" style="stop-color:#5E5DA9"/>
	</linearGradient>
	<circle class="st0" cx="32.1" cy="32.1" r="30.9"/>
	<g>
		<g>
			<path class="st1" d="M41.7,20.4c-1.2,0-2.1,1-2.1,2.1c0,1.2,1,2.1,2.1,2.1c1.2,0,2.1-1,2.1-2.1C43.8,21.3,42.9,20.4,41.7,20.4z"
				/>
			<path class="st1" d="M32.3,23.1c-4.9,0-8.9,4-8.9,8.9c0,4.9,4,8.9,8.9,8.9s8.9-4,8.9-8.9C41.2,27.1,37.2,23.1,32.3,23.1z
				 M32.3,37.8c-3.2,0-5.7-2.6-5.7-5.7c0-3.2,2.6-5.7,5.7-5.7c3.2,0,5.7,2.6,5.7,5.7C38,35.2,35.4,37.8,32.3,37.8z"/>
			<path class="st1" d="M39.4,50.2H24.9c-6,0-10.9-4.9-10.9-10.9V24.8c0-6,4.9-10.9,10.9-10.9h14.5c6,0,10.9,4.9,10.9,10.9v14.5
				C50.2,45.3,45.4,50.2,39.4,50.2z M24.9,17.3c-4.1,0-7.5,3.4-7.5,7.5v14.5c0,4.1,3.4,7.5,7.5,7.5h14.5c4.1,0,7.5-3.4,7.5-7.5V24.8
				c0-4.1-3.4-7.5-7.5-7.5H24.9z"/>
		</g>
	</g>
</g>
</svg>
