<?xml version="1.0" encoding="utf-8"?>
<!-- Generator: Adobe Illustrator 25.4.0, SVG Export Plug-In . SVG Version: 6.00 Build 0)  -->
<svg version="1.1" id="Calque_1" xmlns="http://www.w3.org/2000/svg" xmlns:xlink="http://www.w3.org/1999/xlink" x="0px" y="0px"
	 viewBox="0 0 73.1 72.7" style="enable-background:new 0 0 73.1 72.7;" xml:space="preserve">
<style type="text/css">
	.st0{fill:#FFFFFF;}
</style>
<g>
	<path class="st0" d="M36.4,3C18,3,3,17.9,3,36.3S18,69.6,36.4,69.6s33.3-14.9,33.3-33.3S54.8,3,36.4,3z M20.5,41.5
		c-1.8,0.9-4.2,1.8-7,1.8c-0.2,0-0.4-0.1-0.5-0.3c-0.1-0.2,0-0.4,0.1-0.6c0,0,1.7-1.8,2.9-4.2c-1.9-2.2-3-4.8-3-7.7
		c0-7.1,6.8-12.9,15.2-12.9s15.2,5.8,15.2,12.9s-6.8,12.9-15.2,12.9C25.3,43.2,22.7,42.6,20.5,41.5z M59.5,54
		c0.2,0.2,0.2,0.4,0.1,0.6c-0.1,0.2-0.3,0.3-0.5,0.3c-2.6,0-4.9-0.7-6.7-1.6c-2,1-4.3,1.6-6.8,1.6c-6.6,0-12.1-4.2-13.6-9.8
		c7.8-1.6,13.6-7.6,13.6-14.8c0-0.4,0-0.8-0.1-1.2c0,0,0,0,0.1,0c7.7,0,14,5.8,14,12.9c0,3-1.1,5.7-3,7.9C57.9,52.3,59.5,54,59.5,54
		z"/>
</g>
</svg>
