<?xml version="1.0" encoding="utf-8"?>
<!-- Generator: Adobe Illustrator 25.4.0, SVG Export Plug-In . SVG Version: 6.00 Build 0)  -->
<svg version="1.1" id="Calque_1" xmlns="http://www.w3.org/2000/svg" xmlns:xlink="http://www.w3.org/1999/xlink" x="0px" y="0px"
	 viewBox="0 0 73.1 72.7" style="enable-background:new 0 0 73.1 72.7;" xml:space="preserve">
<style type="text/css">
	.st0{fill:#FFFFFF;}
</style>
<g>
	<g>
		<g>
			<path class="st0" d="M36.4,67.1L36.4,67.1c-0.6,0-1.2-0.2-1.6-0.7c-0.9-1-22.3-24.2-22.3-36.9c0-13.2,10.7-23.9,23.9-23.9
				s23.9,10.7,23.9,23.9c0,12.7-21.4,35.9-22.3,36.9C37.5,66.8,36.9,67.1,36.4,67.1z M36.4,9.8c-10.8,0-19.6,8.8-19.6,19.6
				c0,8.4,13,24.8,19.6,32.3C43,54.2,56,37.9,56,29.5C56,18.6,47.2,9.8,36.4,9.8z"/>
		</g>
	</g>
	<g>
		<g>
			<path class="st0" d="M36.4,39.2c-5.9,0-10.8-4.8-10.8-10.8c0-5.9,4.8-10.8,10.8-10.8c5.9,0,10.8,4.8,10.8,10.8
				C47.1,34.4,42.3,39.2,36.4,39.2z M36.4,21.9c-3.6,0-6.5,2.9-6.5,6.5c0,3.6,2.9,6.5,6.5,6.5c3.6,0,6.5-2.9,6.5-6.5
				C42.8,24.8,39.9,21.9,36.4,21.9z"/>
		</g>
	</g>
</g>
</svg>
