<svg xmlns="http://www.w3.org/2000/svg" viewBox="0 0 395 423.3"><path d="M18.4,117.9c2.4,2.6,1.9,6,2.9,9a103.9,103.9,0,0,0,31.1,45.5c2.2,1.9,4.4,3.8,5.4,6.6-8.7-3.8-17.2-7.9-27.1-11.4l5,13.5a370.7,370.7,0,0,0,17.7,40.5c5.3,10.3,11.1,20.5,18.7,29.8,5.4,6.5,11.3,12.5,19.4,16.9l-13.8-2.6c2.1,3.9,5.8,6.3,9.3,8.5,14.9,9.6,31.8,16,49.8,20.6,1.6.4,4.7.4,4.1,2.3s-3.4,1.4-5.5,1.3c-12.5-.7-23.7-4.8-34.9-8.9-.8-.2-1.4-1-2.4-.7l-1,.4c15.2,20.9,37.4,32,66.4,34a137.6,137.6,0,0,0,27.2-.9c2-.2,3.1,0,4.1,1.8,3.7,6.6,6,13.7,8.2,20.8,3.1,10.1,5.7,20.3,8.5,30.4,1.8.1,1.4-1.3,1.8-2.1s.1-1.2,0-1.9c-2.7-13.9-3.7-28.1-5-42.2-1-11.9-6.8-21.9-13.4-31.7-14.4-21.5-32.4-40.7-51-59.7-17.2-17.5-36.4-33.4-54.3-50.3C70,168.8,55,147.7,44.9,124a127.9,127.9,0,0,1-7.7-25.1,59.4,59.4,0,0,1-1.6-16.3,148.7,148.7,0,0,0,17,39.1A344.7,344.7,0,0,0,91.5,173c9.7,10.7,19.2,21.5,30.2,31.1,8.1,7,16.7,13.5,24.2,21.1s14.6,15.2,21.3,23.3a592.4,592.4,0,0,1,43.4,58.4c1.5,2.4,2.9,2.2,4.3-.1,8.2-12.8,12.7-26.2,13.3-40.6a104.5,104.5,0,0,0-2-24.4c-.8-3.6-1.3-7.5-3.6-11.4-3.2,14-17.7-3.3-29-20.4A152.6,152.6,0,0,0,168,181c-12.9-11.8-26.8-22.7-40.5-33.7C110.1,133.4,92,120,78.3,103.2,68.9,91.8,61.4,79.3,57.1,65.5c-1.3-4.2-2.8-8.3-3.5-12.6A92.7,92.7,0,0,1,56.4,6.8a7.7,7.7,0,0,0,.2-1.5h-.9c-5.1,3.2-7.8,8-10.9,12.4C32.5,34.5,23,52.2,18.3,71.4c-2.3,9.5-3.7,18.9-2.1,28.4.2,1,.7,2,0,3Z" transform="translate(-15 -4.7)" style="fill:#eb673a;stroke:#cd3633;stroke-miterlimit:10"/><path d="M406.6,117.9c-2.4,2.6-1.9,6-2.9,9a103.9,103.9,0,0,1-31.1,45.5c-2.2,1.9-4.4,3.8-5.4,6.6,8.7-3.8,17.2-7.9,27.1-11.4l-5,13.5a370.7,370.7,0,0,1-17.7,40.5c-5.3,10.3-11.1,20.5-18.7,29.8-5.4,6.5-11.3,12.5-19.4,16.9l13.8-2.6c-2.1,3.9-5.8,6.3-9.3,8.5-14.9,9.6-31.8,16-49.8,20.6-1.6.4-4.7.4-4.1,2.3s3.4,1.4,5.5,1.3c12.5-.7,23.7-4.8,34.9-8.9.8-.2,1.4-1,2.4-.7l1,.4c-15.2,20.9-37.4,32-66.4,34a137.6,137.6,0,0,1-27.2-.9c-2-.2-3.1,0-4.1,1.8-3.7,6.6-6,13.7-8.2,20.8-3.1,10.1-5.7,20.3-8.5,30.4-1.8.1-1.4-1.3-1.8-2.1s-.1-1.2,0-1.9c2.7-13.9,3.7-28.1,5-42.2,1-11.9,6.8-21.9,13.4-31.7,14.4-21.5,32.4-40.7,51-59.7,17.2-17.5,36.4-33.4,54.3-50.3C355,168.8,370,147.7,380.1,124a127.9,127.9,0,0,0,7.7-25.1,59.4,59.4,0,0,0,1.6-16.3,148.7,148.7,0,0,1-17,39.1A344.7,344.7,0,0,1,333.5,173c-9.7,10.7-19.2,21.5-30.2,31.1-8.1,7-16.7,13.5-24.2,21.1s-14.6,15.2-21.3,23.3a592.4,592.4,0,0,0-43.4,58.4c-1.5,2.4-2.9,2.2-4.3-.1-8.2-12.8-12.7-26.2-13.3-40.6a104.5,104.5,0,0,1,2-24.4c.8-3.6,1.3-7.5,3.6-11.4,3.2,14,17.7-3.3,29-20.4A152.6,152.6,0,0,1,257,181c12.9-11.8,26.8-22.7,40.5-33.7,17.4-13.9,35.5-27.3,49.2-44.1,9.4-11.4,16.9-23.9,21.2-37.7,1.3-4.2,2.8-8.3,3.5-12.6a92.7,92.7,0,0,0-2.8-46.1,7.7,7.7,0,0,1-.2-1.5h.9c5.1,3.2,7.8,8,10.9,12.4,12.3,16.7,21.8,34.4,26.5,53.6,2.3,9.5,3.7,18.9,2.1,28.4-.2,1-.7,2,0,3Z" transform="translate(-15 -4.7)" style="fill:#cd3633;stroke:#b34137;stroke-miterlimit:10"/><polygon points="200.5 58.2 118.1 105.8 117.3 207.3 201.2 256 284.9 207.9 284.6 106.8 201.6 58.1 200.5 58.2" style="fill:#fff;stroke:#b34137;stroke-linejoin:round;stroke-width:2px"/><polygon points="285.1 207.2 261.2 192.7 259.8 193.6 201.5 256.3 201 256.5 143.6 191.8 142.8 192.1 117.4 207.4 143.4 191.9 118.2 105.7 117.8 105.2 201.3 84.5 201.5 84.6 284.9 106.8 284.8 107.3 261.4 192.6 261.3 192.6 143.5 191.7 143.6 191.6 201.6 84.6 201.6 84.7 201.5 57.7 201.6 84.8 261.2 192.7 285.1 207.2" style="fill:#fff;stroke:#cd3633;stroke-linejoin:round"/><text transform="translate(177.7 172.3)" style="opacity:0.97;font-size:48.74279022216797px;fill:#b14136;font-family:Aladin-Regular, Aladin"><tspan style="letter-spacing:-0.009997472144677846em">2</tspan><tspan x="23" y="0">0</tspan></text><text transform="translate(155.1 409.7) rotate(8.4)" style="font-size:30.212602615356445px;fill:#cc3533;font-family:Aladin-Regular, Aladin">L</text><text transform="translate(172 412.1) rotate(5.6)" style="font-size:30.212602615356445px;fill:#cc3533;font-family:Aladin-Regular, Aladin"> </text><text transform="translate(180.8 412.9) rotate(3.7)" style="font-size:30.212602615356445px;fill:#cc3533;font-family:Aladin-Regular, Aladin"> </text><text transform="translate(189.8 413.5) rotate(0.5)" style="font-size:30.212602615356445px;fill:#cc3533;font-family:Aladin-Regular, Aladin">D</text><text transform="translate(209.3 413.4) rotate(-2.8)" style="font-size:30.212602615356445px;fill:#cc3533;font-family:Aladin-Regular, Aladin"> </text><text transform="matrix(1, -0.08, 0.08, 1, 218.13, 412.92)" style="font-size:30.212602615356445px;fill:#cc3533;font-family:Aladin-Regular, Aladin"> </text><text transform="translate(227.2 412.2) rotate(-8.2)" style="font-size:30.212602615356445px;fill:#cc3533;font-family:Aladin-Regular, Aladin">P</text><text transform="translate(245.6 409.3) rotate(-11.6)" style="font-size:30.212602615356445px;fill:#cc3533;font-family:Aladin-Regular, Aladin"> </text><text transform="translate(254.2 407.4) rotate(-13.8)" style="font-size:30.212602615356445px;fill:#cc3533;font-family:Aladin-Regular, Aladin">	</text><path d="M128.2,395.6s14.8,6.1,28.3,7.9" transform="translate(-15 -4.7)" style="fill:#fff;stroke:#cd3633;stroke-linecap:round;stroke-linejoin:round;fill-rule:evenodd"/><path d="M296.8,396.5s-14.8,6.1-28.3,7.8" transform="translate(-15 -4.7)" style="fill:#fff;stroke:#cd3633;stroke-linecap:round;stroke-linejoin:round;fill-rule:evenodd"/></svg>