<svg xmlns="http://www.w3.org/2000/svg" viewBox="0 0 379.4 287.5"><text transform="translate(84 123) scale(0.92 1)" style="font-size:82.03511810302734px;fill:#010101;font-family:Aladin-Regular, Aladin">a</text><path d="M224.9,154.4a3.7,3.7,0,0,1-.1.8c-.1.4-.2,1.1-.4,1.9a21.5,21.5,0,0,0-.4,3.1c-.3,3.1-.5,6.6-.6,10.3v11.3l.2,17.3a3.9,3.9,0,0,1,.2,1.5c0,.1-.1.2-.1.4a7.3,7.3,0,0,1-1.1,3c-.8,3-5,7-11,11.2l-.7.4a132.9,132.9,0,0,1-23.8,12.5c-13,5.3-26.6,4.7-39.7,2a123.8,123.8,0,0,1-35.5-12.9c-4.7-2.5-9.3-5.1-13.7-7.8A188,188,0,0,0,77.3,198c-6.9-3.2-15.3-4.9-25.3-5.1-7.2.4-14.9,3-23.3,7.9a63.7,63.7,0,0,1,13.8-10.1V79.3c-1-5.4-3.1-8.8-6.3-10.3h26c-3.2,1.5-5.3,5-6.3,10.4V185.8A52.7,52.7,0,0,1,83.3,189a196.1,196.1,0,0,1,27.6,13.1l.6.3a199.5,199.5,0,0,0,32.8,15.3c11.3,4.2,23.6,5.2,36.7,3.6a114.6,114.6,0,0,0,17.7-3.7c8.8-3.7,13.2-9.3,15.5-14a59.9,59.9,0,0,0,1.9-26l-.2-11.4-.2-5.6c0-.5-.7-.8-2.1-1.1a6.1,6.1,0,0,0-4.6,2,9.5,9.5,0,0,0-2.5,5,37.5,37.5,0,0,0-1.2,8.7,18.3,18.3,0,0,0,1,6.4,4.1,4.1,0,0,0,3.9,2.8,3.5,3.5,0,0,0,1.4-.3l.8-.4c.6,0,.8.6.8,1.7a17.2,17.2,0,0,1-.2,2.6,13.6,13.6,0,0,1-.9,2.3c-1,1.8-3,2.7-5.9,2.7a6.7,6.7,0,0,1-6.3-3.4,17.8,17.8,0,0,1-2.3-6.4c-.3-2.7-.4-4.6-.4-5.5v-2c0-.6.2-1.6.4-3.2a31.2,31.2,0,0,1,.9-4.4,31.6,31.6,0,0,1,1.8-4.7,17.5,17.5,0,0,1,2.8-4.4,13.3,13.3,0,0,1,4.4-3.1,11.2,11.2,0,0,1,10.3-.1h.5a7.4,7.4,0,0,1,5.7-2.2A.8.8,0,0,1,224.9,154.4Z" transform="translate(-13.5 -69)" style="fill:#010101"/><path d="M165.2,145.2l-.5,30.1c0,9.4.3,15,.8,16.9a1.7,1.7,0,0,1,.3,1c0,.6-.8.9-2.2.9a13.7,13.7,0,0,1-4.9-1.1c-1.8-.8-2.7-1.9-2.7-3.1a248.8,248.8,0,0,0,1.5-30.7l-.3-12.6a14.1,14.1,0,0,0-.8-3.9,5.7,5.7,0,0,0-1.4-2.1l-.6-.4c-.4-.3-.6-.5-.6-.8s1.1-1.7,3.3-2.8a14.3,14.3,0,0,1,6.4-1.7c.8,0,1.3.3,1.4.9A88.7,88.7,0,0,1,165.2,145.2Z" transform="translate(-13.5 -69)" style="fill:#010101"/><path d="M194,182.2a11.6,11.6,0,0,1-1.2,5.4,10,10,0,0,1-2.6,3.5,12.7,12.7,0,0,1-3.5,1.7,13.5,13.5,0,0,1-4.7.9,10.2,10.2,0,0,1-9.4-5.2c-2-3.5-3-7.8-3-13.2a26.9,26.9,0,0,1,3.7-14.2c2.5-4.2,6.2-6.2,11.2-6.2s7.6,1.7,9.3,5.1a9.2,9.2,0,0,1,.9,3.8,20.2,20.2,0,0,1-.1,2.7,16.5,16.5,0,0,1-3.5,6.8,14.7,14.7,0,0,1-4.8,3.1,23.5,23.5,0,0,1-7.6,2,.5.5,0,0,0-.6.6,7.6,7.6,0,0,0,.5,2.1,11.7,11.7,0,0,0,1.1,2.5,5.7,5.7,0,0,0,4.9,2.3,7.5,7.5,0,0,0,5.5-2.3,11,11,0,0,0,2-3.1.9.9,0,0,1,.8-.6c.3,0,.6.3.8.9A4.4,4.4,0,0,1,194,182.2Zm-16.5-10.9v2c0,.3.2.5.6.5a9.5,9.5,0,0,0,4.2-1.4,7.3,7.3,0,0,0,2.7-2.5,12.2,12.2,0,0,0,2-5.2v-1c0-2.9-1.1-4.4-3.3-4.4a4.4,4.4,0,0,0-3.9,2.3C178.3,164,177.5,167.2,177.5,171.3Zm3.3-21.8a1.1,1.1,0,0,1-.7.3c-.4,0-.6-.2-.6-.7v-.6a44.7,44.7,0,0,1,5.5-8.9,1,1,0,0,1,.9-.4,4.8,4.8,0,0,1,2.2,1.2c1,.8,1.5,1.4,1.5,2a1.6,1.6,0,0,1-.7,1.4A57.2,57.2,0,0,1,180.8,149.5Z" transform="translate(-13.5 -69)" style="fill:#010101"/><path d="M230.1,189.6l.8-19.1c0-4.5-.5-7.6-1.4-9.3a4.3,4.3,0,0,0-1.1-1.2.5.5,0,0,1-.4-.6c0-1,1.2-2,3.8-2.9a20.9,20.9,0,0,1,5.6-1.4c1.2,0,1.8.3,1.9,1s-.1,4.2-.4,9.3-.4,10.5-.4,16.1.3,9.1.9,10.5a3.1,3.1,0,0,1,.2.8c0,.7-1,1.1-2.9,1.1a12.2,12.2,0,0,1-5.9-1.6C230.3,192,230.1,191.1,230.1,189.6Zm6-41.4h-1.8c-1.4,0-2.2.4-2.6,1.1a.4.4,0,0,1-.4.2c-.7,0-1-1.2-1-3.6s.3-4,1-4.6,1.9-1,3.6-1,2.8.3,3.4.9a6.4,6.4,0,0,1,.2,6.2A2.7,2.7,0,0,1,236.1,148.2Z" transform="translate(-13.5 -69)" style="fill:#010101"/><path d="M251.4,161.2h-2.8c-.6,0-.9-.1-.9-.5a1.2,1.2,0,0,1,.4-.9c3.3-3.3,8.7-4.9,16.4-4.9a20.3,20.3,0,0,1,6.2.8l.7.2c.7.3,1,.6,1,.9s-.2.5-.6.7a14.5,14.5,0,0,0-3.9,2c-1.3,1-1.9,1.7-1.9,2.1l.5.5a9.9,9.9,0,0,1,3.7,4.7,17.3,17.3,0,0,1,1.5,5.7v2.5c0,5.4-1.4,9.9-4.1,13.4a13.8,13.8,0,0,1-11.4,5.2,12.7,12.7,0,0,1-6.3-1.4,11.4,11.4,0,0,1-3.9-3.1,16.6,16.6,0,0,1-2-4,21,21,0,0,1,.2-12.8,11.9,11.9,0,0,1,2.3-4.8,12.2,12.2,0,0,1,3-2.6,7.3,7.3,0,0,1,3.4-1.2c.8,0,1.3.2,1.3.6l-.5.8a13.8,13.8,0,0,0-2.4,5.6,36.8,36.8,0,0,0-.7,6.1,23.9,23.9,0,0,0,.6,5.3,15.5,15.5,0,0,0,1.4,3.9,6.4,6.4,0,0,0,1.7,1.9,6,6,0,0,0,3.1,1,5,5,0,0,0,3.1-1.4,7.3,7.3,0,0,0,2.1-3.5,24.9,24.9,0,0,0,1.4-8.5c0-4.6-1.1-8.1-3.2-10.7S255.6,161.2,251.4,161.2Z" transform="translate(-13.5 -69)" style="fill:#010101"/><path d="M275.5,192.7a143.1,143.1,0,0,0,1.4-21.3c0-8.2-.2-13.6-.7-16.1,0-.7.8-1,2.3-1s3.8.9,4.6,2.8c0,.2.2.3.4.3l.4-.2c1.6-1.7,4-2.6,7.3-2.6a10.9,10.9,0,0,1,7.8,2.7c1.9,1.8,2.9,4.4,2.9,7.9s-.2,5-.5,8.8a84.7,84.7,0,0,0-.5,8.6c0,4.4.7,7.6,2,9.6a1.1,1.1,0,0,1,.3.8c0,.7-.7,1.1-2.1,1.1-6.3,0-9.4-3-9.4-9.1a43.5,43.5,0,0,1,1.5-9.6,48.5,48.5,0,0,0,1.4-9.3c0-4.4-1.7-6.6-5-6.6a4.4,4.4,0,0,0-3.7,1.6,6.4,6.4,0,0,0-1.4,3.6c-.1,1.3-.1,3.8-.1,7.5,0,5.7.2,10.7.5,14.9l.2,1.8c0,1.5-1,2.7-2.8,3.6a12.1,12.1,0,0,1-4.8,1.2C276.2,193.7,275.5,193.4,275.5,192.7Z" transform="translate(-13.5 -69)" style="fill:#010101"/><path d="M133.1,289.1l-.2,11.5c0,.5.2.8.5.8a2.6,2.6,0,0,0,1-.4c1.9-1.4,5.1-2,9.3-2,7.2,0,12.2,2.4,15,7.4a15,15,0,0,1,1.5,7.3c0,3-.1,7.2-.5,12.5s-.5,9.2-.5,11.4c0,7.8,1.1,13,3.3,15.5a1.7,1.7,0,0,1,.6,1.2q0,1.2-5.1,1.2-13.8,0-13.8-12.9,0-5,2.4-14.1c1.6-6.1,2.4-10.5,2.4-13.4s-.7-5.1-2.1-6.6a6.8,6.8,0,0,0-5.5-2.4,9.6,9.6,0,0,0-5.7,1.6,6,6,0,0,0-2.5,3.2l-.4,1.6c-4.4,6.5-3.6,33.5.5,30.3,1.8-1.5.6,3.8.6,4.1,0,2.3-1.6,4.4-4.6,6.2a18.3,18.3,0,0,1-9.2,2.7c-1.1,0-1.6-.7-1.6-2l.2-2.2a346.1,346.1,0,0,0,2.6-43.5c0-6.1-.2-12.2-.7-18.5V287a15.9,15.9,0,0,0-1.4-5.7,6.8,6.8,0,0,0-2.1-3.1l-1-.6c-.6-.3-.9-.7-.9-1.1s1.9-2.5,5.6-4.1,6.6-2.5,8.6-2.5,3.1.5,3.3,1.3C132.9,275.3,133.1,281.2,133.1,289.1Z" transform="translate(-13.5 -69)" style="fill:#010101"/><path d="M211.7,340.8a13.6,13.6,0,0,1-1.9,7,13.9,13.9,0,0,1-4.3,4.4,23.3,23.3,0,0,1-5.5,2.3,29.4,29.4,0,0,1-7.6,1c-6.8,0-11.8-2.2-15.1-6.6s-4.8-10.1-4.8-16.9a29.6,29.6,0,0,1,6-18.3q6-8.1,18-8.1c7.3,0,12.2,2.3,14.8,6.7a8.8,8.8,0,0,1,1.6,4.8,17.3,17.3,0,0,1-.3,3.6,12.5,12.5,0,0,1-1.7,3.9,15.8,15.8,0,0,1-3.8,4.8,27,27,0,0,1-7.7,4,51.5,51.5,0,0,1-12.2,2.5c-.7,0-1,.3-1,.7a6.3,6.3,0,0,0,.8,2.8,12.7,12.7,0,0,0,1.7,3.1c1.8,2,4.4,3,7.9,3a13.5,13.5,0,0,0,8.9-3,11,11,0,0,0,3.1-3.9,1.7,1.7,0,0,1,1.3-.8c.5,0,1,.4,1.3,1.2A4.9,4.9,0,0,1,211.7,340.8Zm-26.5-14.1v2.7c0,.4.4.6,1,.6a19.4,19.4,0,0,0,6.8-1.7,14.4,14.4,0,0,0,4.4-3.3c1.9-2.6,3-4.8,3.1-6.7V317c0-3.8-1.7-5.7-5.2-5.7a7.7,7.7,0,0,0-6.3,3C186.5,317.4,185.2,321.5,185.2,326.7Zm5.4-27.9a2.4,2.4,0,0,1-1.3.4.8.8,0,0,1-.9-.9l.2-.9a58.3,58.3,0,0,1,8.8-11.4,2.1,2.1,0,0,1,1.5-.5,7.9,7.9,0,0,1,3.4,1.5c1.6,1.1,2.5,1.9,2.5,2.7a2,2,0,0,1-1.1,1.7A88.6,88.6,0,0,1,190.6,298.8Z" transform="translate(-13.5 -69)" style="fill:#010101"/><path d="M222.3,354.1a166.9,166.9,0,0,0,2.4-30.5q0-17.9-1.2-23.1c0-1,1.3-1.5,4-1.5s6.9,1.4,8.2,4.1a.7.7,0,0,0,.7.4,1.1,1.1,0,0,0,.8-.3c2.8-2.5,7.1-3.7,12.9-3.7s10.4,1.3,13.8,3.8,5.2,6.4,5.2,11.3a126.9,126.9,0,0,1-.9,12.8c-.6,5.5-.9,9.5-.9,12.2q0,9.6,3.6,13.8a1.7,1.7,0,0,1,.6,1.2c0,1-1.3,1.5-3.8,1.5-11.1,0-16.7-4.3-16.7-12.9,0-3.3.9-7.9,2.6-13.8s2.6-10.4,2.6-13.5c0-6.2-3-9.4-8.9-9.4-2.9,0-5.1.8-6.5,2.3s-1.8,3.3-2.5,5.1c-5.5,12.5-5.9,38.8.6,32.2l.3,2.6c0,2.2-1.6,3.9-4.9,5.1a25.4,25.4,0,0,1-8.5,1.8C223.5,355.6,222.3,355.1,222.3,354.1Z" transform="translate(-13.5 -69)" style="fill:#010101"/><path d="M283.9,349.7l1.2-27.4c0-6.5-.7-10.9-2.1-13.3a4.5,4.5,0,0,0-1.5-1.8.8.8,0,0,1-.6-.9c0-1.4,1.8-2.8,5.5-4.1a25.4,25.4,0,0,1,8.1-2c1.7,0,2.6.4,2.6,1.4s-.2,6-.6,13.3-.6,15.1-.6,23.2.5,13.1,1.3,15.1a1.7,1.7,0,0,1,.4,1.1c0,1.1-1.4,1.6-4.2,1.6a17.4,17.4,0,0,1-8.4-2.4C284.3,353.1,283.9,351.9,283.9,349.7Zm8.7-59.4H290c-2,0-3.2.5-3.8,1.5a.7.7,0,0,1-.6.3c-.9,0-1.4-1.7-1.4-5.2s.5-5.7,1.5-6.7,2.7-1.4,5.1-1.4,4,.5,4.9,1.4,1.3,2.4,1.3,4.5-.3,3.6-1,4.4S294.2,290.3,292.6,290.3Z" transform="translate(-13.5 -69)" style="fill:#010101"/><path d="M309.3,341.7l2.3.4c4.5,0,9.1-4,13.6-11.9l.9-1.4a166.4,166.4,0,0,0-8.8-15.2c-2.5-3.8-4.2-5.9-5-6.5l-1.2-.9c-1.1-.5-1.6-1.1-1.6-1.8s1.4-2.1,4.2-3.3a25.5,25.5,0,0,1,7.9-2c1.3-.1,2.6.9,3.7,2.9a120.8,120.8,0,0,1,7.9,14.8v.2a117.8,117.8,0,0,0,6.9-13.3c0-1.2,1-2.1,2.9-2.7a25,25,0,0,1,7.2-1c2.9,0,4.3.5,4.3,1.5s-.4.8-1.1,1.3l-2,1.4a53.8,53.8,0,0,0-5.6,6.2,102.7,102.7,0,0,0-8.7,12.5l-.3.7c4.5,8.2,7.1,13,8,14.2l2,3a23,23,0,0,0,3,3.4,10.2,10.2,0,0,0,4.3,2.8c1.3.4,2,1,2,1.7s-1.4,2.4-4.2,3.9a15.1,15.1,0,0,1-7.7,2.3,4.8,4.8,0,0,1-3.9-1.7c-1.7-2-5.2-7.8-10.7-17.6-4.8,8.1-7.6,12.8-8.5,14.1a19.3,19.3,0,0,1-3.5,3.5,7.7,7.7,0,0,1-4.6,1.5,5.3,5.3,0,0,1-4-1.7,5.5,5.5,0,0,1-1.8-3.3l-.3-1.6C306.9,343.9,307.7,341.7,309.3,341.7Z" transform="translate(-13.5 -69)" style="fill:#010101"/><text transform="translate(317.8 123.1) scale(0.92 1)" style="font-size:82.03511810302734px;fill:#010101;font-family:Aladin-Regular, Aladin">du</text><path d="M116.6,257.5a54.1,54.1,0,0,1-2.8,17.3,30.1,30.1,0,0,1-8.9,13.2c-4,3.5-9.3,5.2-16,5.2H64.7v54.2c1,4.7,3,7.7,5.9,9.1H45.8c3-1.4,5-4.6,5.9-9.7V249.4c-.9-5-2.9-8.3-5.9-9.8H70.7c-3.1,1.5-5.1,4.8-6,9.8,0,0-1.2,41.6,0,42.2s38-2.7,36.2-13a43.9,43.9,0,0,0,2.3-11.1,74.7,74.7,0,0,0,.5-10c-.4-12.2-3.7-21.9-9.8-28.9A41.3,41.3,0,0,0,71.4,215a50.3,50.3,0,0,0-26.4.8,43,43,0,0,0-21.4,14.5c-5.6,7-8.1,16.1-7.6,27.2a39.4,39.4,0,0,0,7.8,21.2c4.6,6.1,11.1,9.8,19.4,11.2,1.7-1.2,2.7-3.2,3.2-6.2v14.6c-.6-4-2.2-6.3-4.7-6.7-8.4-1.6-14.9-5.6-19.6-11.9a43,43,0,0,1-8.4-22.2c-1-13.4,1.8-24.1,8.3-32.1a46,46,0,0,1,25.4-15.7,63.5,63.5,0,0,1,31.5.4,53.2,53.2,0,0,1,26.7,16C112.8,234,116.4,244.5,116.6,257.5Z" transform="translate(-13.5 -69)" style="fill:#010101"/><polygon points="252.9 145 227.5 175.3 239.6 216.8 277.3 225.5 303.1 194.7 290.7 153.5 253.3 144.7 252.9 145" style="fill:#fff;stroke:#010101;stroke-miterlimit:10"/><path d="M316.7,263.7l-11.5-3.1h0c.5,0-13.7,33-13.7,33h-1.4L261,276.4l-.3.2-7.5,9.1,7.7-9.3-19.6-31.9v-.4l28.8-20-.9.8,34.3-1.7h.7l1.1,37.9v-.5l-44.3,15.8h.1l9-51.9h0l-3.3-10.6,3.3,10.7,35.2,36.1Z" transform="translate(-13.5 -69)" style="fill:#fff;stroke:#010101;stroke-miterlimit:10"/><path d="M287.9,285.4,293,273a1.1,1.1,0,0,0-1.4-1.5l-15.8,5.2a1.1,1.1,0,0,0-.3,2l10.7,7.2A1.1,1.1,0,0,0,287.9,285.4Z" transform="translate(-13.5 -69)" style="fill:#010101;stroke:#010101;stroke-miterlimit:10"/><path d="M223.7,201c-.2,4.9-5.9,10-12.1,14.2,6-4.2,10.2-8.2,11-11.2A7.3,7.3,0,0,0,223.7,201Z" transform="translate(-13.5 -69)" style="fill:#010101"/></svg>