<svg xmlns="http://www.w3.org/2000/svg" viewBox="0 0 357.1 270.6"><text transform="translate(79.1 115.7) scale(0.92 1)" style="font-size:77.21022033691406px;fill:#eb673a;font-family:Aladin-Regular, Aladin">a</text><path d="M219.7,187.7c-.1.1,0,.1.1.1S219.7,187.8,219.7,187.7Z" transform="translate(-25.7 -63.4)" style="fill:#eb673a"/><path d="M223.8,143c-2.4,0-4.2.6-5.4,2H218a12.4,12.4,0,0,0-4.8-1.1,11.4,11.4,0,0,0-4.9,1.2,14.9,14.9,0,0,0-4.2,2.9,19,19,0,0,0-2.7,4.2,26.7,26.7,0,0,0-1.6,4.4,25.9,25.9,0,0,0-.9,4.2,25.2,25.2,0,0,0-.3,2.9,10.9,10.9,0,0,0-.1,2c0,.8.2,2.5.4,5.1a15.3,15.3,0,0,0,2.2,6,6.2,6.2,0,0,0,5.9,3.2c2.8,0,4.6-.8,5.5-2.5a7.9,7.9,0,0,0,.9-2.2,14.7,14.7,0,0,0,.2-2.5c0-1-.2-1.5-.7-1.5l-.8.3a3.1,3.1,0,0,1-1.3.3,3.7,3.7,0,0,1-3.6-2.6,16.6,16.6,0,0,1-1-6.1,32.4,32.4,0,0,1,1.1-8.1,9.1,9.1,0,0,1,2.4-4.8,5.7,5.7,0,0,1,4.3-1.8c1.3.2,2,.6,2,1l.2,5.3v10.8a55.2,55.2,0,0,1-1.8,24.5h0c-2.1,4.4-6.4,9.7-14.7,13.1a106.5,106.5,0,0,1-16.5,3.5c-12.4,1.4-23.9.5-34.6-3.4A191.9,191.9,0,0,1,117.9,189l-.6-.3a195.9,195.9,0,0,0-25.9-12.4,49.8,49.8,0,0,0-25.8-2.9V73.2c.9-5.1,2.8-8.4,5.9-9.8H47c3,1.4,5,4.6,5.9,9.7V177.9A59.8,59.8,0,0,0,40,187.5q11.7-7,21.9-7.5c9.4.2,17.4,1.8,23.8,4.8a167.6,167.6,0,0,1,19.7,10.8c4.1,2.5,8.4,4.9,12.8,7.3A116.9,116.9,0,0,0,151.7,215c12.3,2.5,25.1,3.2,37.3-1.8A128.2,128.2,0,0,0,212.1,201l.6-.4c5.3-3.8,9.1-7.4,9.8-10.2a8.6,8.6,0,0,0,1-2.8v-.4a3.4,3.4,0,0,0-.1-1.4l-.2-16.2c0-3.5,0-7.1.1-10.6a97.1,97.1,0,0,1,.5-9.8c.1-1.1.2-2.1.3-2.9s.3-1.4.4-1.8l.2-.7C224.7,143.3,224.4,143,223.8,143Zm-4,44.8c-.1,0-.2,0-.1-.1S219.7,187.8,219.8,187.8Z" transform="translate(-25.7 -63.4)" style="fill:#eb673a"/><path d="M168.4,135.1l-.4,28.3c0,8.9.2,14.2.8,15.9a4.4,4.4,0,0,1,.2,1q0,.9-2.1.9a12.3,12.3,0,0,1-4.6-1.1c-1.7-.8-2.5-1.7-2.5-2.9a243.2,243.2,0,0,0,1.4-28.9l-.3-11.8a9.7,9.7,0,0,0-.8-3.7,4.9,4.9,0,0,0-1.3-2l-.6-.4c-.3-.2-.5-.4-.5-.7s1.1-1.6,3.1-2.7a14.2,14.2,0,0,1,6-1.6c.8,0,1.2.3,1.3.9A77.5,77.5,0,0,1,168.4,135.1Z" transform="translate(-25.7 -63.4)" style="fill:#eb673a"/><path d="M195.5,169.9a10.8,10.8,0,0,1-1.1,5.2,8.3,8.3,0,0,1-2.5,3.2,13.8,13.8,0,0,1-3.2,1.7,15,15,0,0,1-4.5.7,9.5,9.5,0,0,1-8.8-4.8,24.5,24.5,0,0,1-2.9-12.4,25.1,25.1,0,0,1,3.6-13.4,11.4,11.4,0,0,1,10.5-5.9c4.3,0,7.2,1.6,8.7,4.9a7.9,7.9,0,0,1,.9,3.5,18.6,18.6,0,0,1-.1,2.6,11,11,0,0,1-1,2.9,11.8,11.8,0,0,1-2.3,3.5,12.9,12.9,0,0,1-4.5,2.9,23.8,23.8,0,0,1-7.1,1.9c-.4,0-.6.2-.6.5a6.8,6.8,0,0,0,.4,2.1,15,15,0,0,0,1.1,2.2,5.2,5.2,0,0,0,4.6,2.2,6.9,6.9,0,0,0,5.2-2.2,8.2,8.2,0,0,0,1.9-2.8.7.7,0,0,1,.7-.6c.3,0,.6.2.7.8A4.5,4.5,0,0,1,195.5,169.9ZM180,159.7v1.9c0,.3.2.4.6.4a8.1,8.1,0,0,0,3.9-1.2,7.6,7.6,0,0,0,2.6-2.4,12.2,12.2,0,0,0,1.9-4.9v-1c0-2.7-1-4.1-3-4.1a4.2,4.2,0,0,0-3.7,2.1C180.8,152.8,180,155.8,180,159.7Zm3.1-20.5a.9.9,0,0,1-.7.3c-.3,0-.5-.2-.5-.7v-.6a47.2,47.2,0,0,1,5.1-8.4,1.2,1.2,0,0,1,.9-.3,4.1,4.1,0,0,1,2.1,1.1c.9.7,1.4,1.4,1.4,1.9a1.4,1.4,0,0,1-.7,1.3A55.8,55.8,0,0,1,183.1,139.2Z" transform="translate(-25.7 -63.4)" style="fill:#eb673a"/><path d="M219.7,187.7c-.1.1,0,.1.1.1S219.7,187.8,219.7,187.7Z" transform="translate(-25.7 -63.4)" style="fill:#eb673a"/><path d="M229.5,176.9l.8-17.9c0-4.3-.5-7.2-1.4-8.8a2.7,2.7,0,0,0-1-1.1.5.5,0,0,1-.4-.6q0-1.5,3.6-2.7a18,18,0,0,1,5.3-1.4c1.1,0,1.7.4,1.8,1s-.2,3.9-.4,8.7-.4,9.9-.4,15.2.3,8.6.8,9.9a1.1,1.1,0,0,1,.3.8c0,.6-.9,1-2.7,1a12.3,12.3,0,0,1-5.6-1.6C229.7,179.2,229.5,178.3,229.5,176.9Zm5.7-38.9h-1.7c-1.3,0-2.1.3-2.5,1l-.4.2c-.6,0-.9-1.1-.9-3.4s.3-3.8,1-4.4a4.1,4.1,0,0,1,7.4,3,4.8,4.8,0,0,1-.6,2.8A2.7,2.7,0,0,1,235.2,138Z" transform="translate(-25.7 -63.4)" style="fill:#eb673a"/><path d="M249.6,150.2h-2.7c-.5,0-.8-.1-.8-.5a1.2,1.2,0,0,1,.4-.9c3-3,8.2-4.5,15.4-4.5a17.9,17.9,0,0,1,5.8.7l.7.2c.6.3.9.5.9.8s-.2.5-.5.7a11.8,11.8,0,0,0-3.7,1.9c-1.2.9-1.8,1.6-1.8,1.9l.4.6a8.9,8.9,0,0,1,3.6,4.4,14.6,14.6,0,0,1,1.3,5.3l.2,2.4q0,7.6-3.9,12.6a12.9,12.9,0,0,1-10.7,4.9,12,12,0,0,1-5.9-1.3,10.5,10.5,0,0,1-3.7-3,14.3,14.3,0,0,1-1.9-3.7,23.3,23.3,0,0,1-.8-5.9,22.1,22.1,0,0,1,.9-6.2,15.7,15.7,0,0,1,2.2-4.5,10.9,10.9,0,0,1,2.9-2.4,6.7,6.7,0,0,1,3.2-1.2q1.2,0,1.2.6l-.5.7a14.4,14.4,0,0,0-2.2,5.3,33.8,33.8,0,0,0-.7,5.7,20.7,20.7,0,0,0,.6,5,12.8,12.8,0,0,0,1.3,3.7,5.7,5.7,0,0,0,1.6,1.8,5.2,5.2,0,0,0,2.9.9,4.6,4.6,0,0,0,2.9-1.2,7.7,7.7,0,0,0,2-3.4,24,24,0,0,0,1.3-8c0-4.3-1-7.6-3-10S253.5,150.2,249.6,150.2Z" transform="translate(-25.7 -63.4)" style="fill:#eb673a"/><path d="M272.3,179.8a141.6,141.6,0,0,0,1.3-20c0-7.8-.3-12.8-.7-15.1,0-.7.7-1,2.2-1a4.2,4.2,0,0,1,4.3,2.7l.4.2a.4.4,0,0,0,.4-.2c1.5-1.6,3.7-2.4,6.8-2.4a10.1,10.1,0,0,1,7.3,2.5c1.9,1.7,2.8,4.2,2.8,7.4s-.2,4.8-.5,8.4-.5,6.3-.5,8c0,4.2.7,7.2,2,9a3.1,3.1,0,0,1,.2.8c0,.7-.6,1-2,1-5.8,0-8.8-2.8-8.8-8.5a44.1,44.1,0,0,1,1.4-9,41.9,41.9,0,0,0,1.3-8.8c0-4.1-1.5-6.2-4.7-6.2a4.1,4.1,0,0,0-3.4,1.5,5.3,5.3,0,0,0-1.3,3.3c-.1,1.3-.2,3.7-.2,7.2,0,5.3.2,10,.5,14l.2,1.7c0,1.4-.9,2.5-2.6,3.3a11.6,11.6,0,0,1-4.5,1.2C272.9,180.8,272.3,180.5,272.3,179.8Z" transform="translate(-25.7 -63.4)" style="fill:#eb673a"/><path d="M138.2,270.5v10.9c0,.5.1.7.4.7a1.6,1.6,0,0,0,.9-.3c1.9-1.3,4.8-1.9,8.8-1.9q10.2,0,14.1,6.9a13.8,13.8,0,0,1,1.5,6.9c0,2.8-.2,6.8-.5,11.8s-.5,8.6-.5,10.7c0,7.3,1,12.2,3.1,14.6a1.5,1.5,0,0,1,.5,1.1q0,1.2-4.8,1.2c-8.6,0-12.9-4.1-12.9-12.2a56.2,56.2,0,0,1,2.2-13.3c1.5-5.7,2.3-9.9,2.3-12.6a9.6,9.6,0,0,0-1.9-6.2,6.7,6.7,0,0,0-5.3-2.2,8.6,8.6,0,0,0-5.3,1.5,5.9,5.9,0,0,0-2.4,3l-.3,1.5c-4.2,6.1-3.5,31.6.4,28.5,1.7-1.4.6,3.6.6,3.9,0,2.1-1.5,4.1-4.4,5.8a16.9,16.9,0,0,1-8.6,2.5c-1,0-1.6-.6-1.6-1.8l.3-2.1a326.8,326.8,0,0,0,2.4-41c0-5.7-.2-11.5-.6-17.3l-.2-2.5a14.3,14.3,0,0,0-1.2-5.4,8.7,8.7,0,0,0-2-2.9l-1-.6c-.5-.3-.8-.6-.8-1s1.8-2.3,5.3-3.9,6.2-2.3,8.1-2.3,2.9.4,3,1.3C138,257.6,138.2,263.2,138.2,270.5Z" transform="translate(-25.7 -63.4)" style="fill:#eb673a"/><path d="M212.2,319.2a12.1,12.1,0,0,1-1.8,6.6,11.2,11.2,0,0,1-4,4.1,18.9,18.9,0,0,1-5.2,2.2,31.2,31.2,0,0,1-7.2,1q-9.6,0-14.1-6.3c-3.1-4.1-4.6-9.5-4.6-15.9a28.1,28.1,0,0,1,5.6-17.2c3.8-5.1,9.5-7.6,17-7.6s11.5,2.1,13.9,6.3a8.6,8.6,0,0,1,1.5,4.5,29.6,29.6,0,0,1-.2,3.4,18.2,18.2,0,0,1-1.6,3.7,15.6,15.6,0,0,1-3.7,4.5,23.6,23.6,0,0,1-7.2,3.7,44.7,44.7,0,0,1-11.5,2.4c-.6,0-.9.2-.9.7a6.7,6.7,0,0,0,.7,2.6,13.9,13.9,0,0,0,1.7,3c1.7,1.8,4.1,2.7,7.4,2.7a13.2,13.2,0,0,0,8.4-2.7,10.6,10.6,0,0,0,2.9-3.7,1.4,1.4,0,0,1,1.2-.8c.5,0,.9.4,1.2,1.1A5.1,5.1,0,0,1,212.2,319.2ZM187.3,306v2.5q0,.6.9.6a17.7,17.7,0,0,0,6.4-1.7,12.4,12.4,0,0,0,4.1-3c1.8-2.5,2.8-4.6,3-6.4v-1.1c0-3.6-1.6-5.4-4.9-5.4a7.3,7.3,0,0,0-6,2.8C188.5,297.2,187.3,301.1,187.3,306Zm5-26.3a3,3,0,0,1-1.1.4c-.7,0-1-.3-1-.9l.3-.8a51.8,51.8,0,0,1,8.2-10.7,1.6,1.6,0,0,1,1.4-.5,8,8,0,0,1,3.3,1.4c1.5,1,2.3,1.8,2.3,2.5a1.8,1.8,0,0,1-1.1,1.6A82.6,82.6,0,0,1,192.3,279.7Z" transform="translate(-25.7 -63.4)" style="fill:#eb673a"/><path d="M222.2,331.7a157.3,157.3,0,0,0,2.2-28.7c0-11.1-.3-18.4-1.1-21.7,0-1,1.3-1.4,3.8-1.4s6.4,1.3,7.7,3.8a.5.5,0,0,0,.6.4,1.5,1.5,0,0,0,.8-.2c2.6-2.4,6.7-3.6,12.1-3.6s9.9,1.2,13.1,3.7,4.8,6,4.8,10.6c0,2.8-.3,6.8-.8,12a110.9,110.9,0,0,0-.9,11.5c0,6,1.2,10.3,3.5,13a1.6,1.6,0,0,1,.5,1.1c0,.9-1.2,1.4-3.6,1.4-10.4,0-15.7-4-15.7-12.2q0-4.6,2.4-12.9c1.6-5.6,2.4-9.8,2.4-12.7,0-5.9-2.7-8.8-8.3-8.8-2.7,0-4.8.7-6.1,2.1s-1.7,3.1-2.4,4.8c-5.1,11.8-5.5,36.5.6,30.3l.3,2.4c0,2.1-1.5,3.7-4.6,4.9a25,25,0,0,1-8,1.7Q222.2,333.2,222.2,331.7Z" transform="translate(-25.7 -63.4)" style="fill:#eb673a"/><path d="M280.2,327.6l1.1-25.8c0-6.1-.7-10.3-2-12.5a4.7,4.7,0,0,0-1.4-1.7.8.8,0,0,1-.6-.9c0-1.3,1.7-2.6,5.2-3.8a24.6,24.6,0,0,1,7.6-1.9c1.6,0,2.4.4,2.5,1.3s-.2,5.7-.6,12.6-.5,14.2-.5,21.8.4,12.3,1.2,14.2a2,2,0,0,1,.3,1.1c0,.9-1.3,1.4-3.9,1.4a16,16,0,0,1-7.9-2.2C280.5,330.8,280.2,329.6,280.2,327.6Zm8.1-55.9h-2.4c-1.9,0-3.1.4-3.6,1.4a.5.5,0,0,1-.5.3c-.9,0-1.3-1.6-1.3-4.9s.4-5.4,1.3-6.3,2.6-1.3,4.8-1.3,3.9.4,4.7,1.3,1.2,2.2,1.2,4.2a7.3,7.3,0,0,1-.9,4.2Q290.7,271.7,288.3,271.7Z" transform="translate(-25.7 -63.4)" style="fill:#eb673a"/><path d="M304,320.1l2.2.3c4.3,0,8.6-3.7,12.8-11.2a7.3,7.3,0,0,0,.9-1.3c-3.2-6-6-10.7-8.3-14.3s-3.9-5.6-4.7-6.1l-1.1-.9c-1-.4-1.6-1-1.6-1.6s1.4-2,4-3.1a23,23,0,0,1,7.5-1.9c1.2-.1,2.4.8,3.5,2.7a122.1,122.1,0,0,1,7.4,13.9v.2a122.2,122.2,0,0,0,6.5-12.5c0-1.1.9-2,2.7-2.5a22,22,0,0,1,6.8-.9c2.6,0,4,.4,4,1.3s-.3.8-1,1.2l-1.9,1.3a74.4,74.4,0,0,0-5.3,5.9,80.3,80.3,0,0,0-8.1,11.8l-.4.6c4.2,7.8,6.7,12.2,7.5,13.4l2,2.8a16.3,16.3,0,0,0,2.8,3.2,10.1,10.1,0,0,0,4,2.7c1.3.4,1.9.9,1.9,1.5s-1.3,2.3-3.9,3.8a15.4,15.4,0,0,1-7.3,2.1,4.4,4.4,0,0,1-3.7-1.6c-1.5-1.9-4.9-7.4-10-16.6-4.5,7.7-7.2,12.1-8.1,13.3a14.2,14.2,0,0,1-3.2,3.3,7.6,7.6,0,0,1-4.3,1.4,4.6,4.6,0,0,1-3.8-1.6,5.1,5.1,0,0,1-1.7-3.1l-.3-1.5C301.8,322.1,302.6,320.1,304,320.1Z" transform="translate(-25.7 -63.4)" style="fill:#eb673a"/><text transform="translate(299.1 115.8) scale(0.92 1)" style="font-size:77.21022033691406px;fill:#eb673a;font-family:Aladin-Regular, Aladin">du</text><path d="M122.7,240.8a48.1,48.1,0,0,1-2.7,16.3,27.8,27.8,0,0,1-8.3,12.5q-5.7,4.8-15,4.8H73.8v51c1,4.4,2.8,7.3,5.6,8.6H56.1c2.8-1.3,4.7-4.4,5.5-9.1V233.2c-.8-4.7-2.7-7.8-5.5-9.2H79.5c-2.9,1.4-4.8,4.5-5.7,9.2,0,0-1,39.1,0,39.7s35.8-2.5,34.1-12.2a43.7,43.7,0,0,0,2.2-10.5,65.2,65.2,0,0,0,.5-9.4c-.4-11.5-3.5-20.6-9.3-27.2a38.8,38.8,0,0,0-21.1-12.8,47.8,47.8,0,0,0-24.9.8,40.2,40.2,0,0,0-20.1,13.6c-5.3,6.6-7.6,15.1-7.2,25.6a37.7,37.7,0,0,0,7.3,20q6.6,8.6,18.3,10.5c1.6-1.1,2.6-3,3.1-5.8v13.8c-.6-3.9-2.1-6-4.5-6.4-7.9-1.5-14-5.2-18.5-11.2a39.7,39.7,0,0,1-7.8-20.9c-1-12.6,1.6-22.7,7.8-30.1a43,43,0,0,1,23.8-14.9,61,61,0,0,1,29.7.4,50,50,0,0,1,25.1,15.1C119.1,218.7,122.5,228.6,122.7,240.8Z" transform="translate(-25.7 -63.4)" style="fill:#eb673a"/><polygon points="238 136.4 214.1 165 225.5 204.1 261 212.2 285.3 183.3 273.6 144.5 238.4 136.2 238 136.4" style="fill:#fff;stroke:#eb673a;stroke-linecap:round;stroke-linejoin:bevel"/><path d="M311,246.7l-10.8-2.9s-.5-.1,0-.1-12.9,31.1-12.9,31.1h-1.4l-27.3-16.3-.3.2-7,8.6,7.2-8.8L240,228.5v-.3l27.2-18.8-.8.8,32.2-1.7h.7l1,35.7v-.5l-41.7,14.9h.1l8.5-48.9h0l-3.1-10,3.1,10,33.1,34.1Z" transform="translate(-25.7 -63.4)" style="fill:#fff;stroke:#eb673a;stroke-linecap:round;stroke-linejoin:bevel"/><path d="M283.9,267.1l4.8-11.7a1.1,1.1,0,0,0-1.3-1.4l-14.9,4.9a1.1,1.1,0,0,0-.2,1.9l10,6.8A1.1,1.1,0,0,0,283.9,267.1Z" transform="translate(-25.7 -63.4)" style="fill:#eb673a"/><path d="M219.8,187.8c-.1,0-.2,0-.1-.1S219.7,187.8,219.8,187.8Z" transform="translate(-25.7 -63.4)" style="fill:#eb673a"/><path d="M223.5,187.6c-.2,4.5-5.2,9.2-10.8,13,5.3-3.8,9.1-7.4,9.8-10.2A8.6,8.6,0,0,0,223.5,187.6Z" transform="translate(-25.7 -63.4)" style="fill:#eb673a"/></svg>