<svg xmlns="http://www.w3.org/2000/svg" viewBox="0 0 369.5 280"><text transform="translate(81.8 119.7) scale(0.92 1)" style="font-size:79.89391326904297px;fill:#cc3533;font-family:Aladin-Regular, Aladin">a</text><path d="M219.2,201.4h0Z" transform="translate(-18.5 -72.7)" style="fill:#cc3533"/><path d="M223.5,155.1a7.2,7.2,0,0,0-5.6,2.1h-.5a11.1,11.1,0,0,0-4.9-1.2,11.3,11.3,0,0,0-5.1,1.3,13.8,13.8,0,0,0-4.3,3,20,20,0,0,0-2.8,4.3,45.1,45.1,0,0,0-1.7,4.6c-.4,1.3-.6,2.8-.9,4.3a28.5,28.5,0,0,0-.3,3,11.5,11.5,0,0,0-.1,2c0,.9.2,2.7.5,5.4a16.6,16.6,0,0,0,2.2,6.2c1.2,2.2,3.2,3.3,6.1,3.3s4.8-.9,5.7-2.6a6.4,6.4,0,0,0,.9-2.2,10.2,10.2,0,0,0,.2-2.6c0-1.1-.2-1.6-.7-1.6l-.8.3a3.5,3.5,0,0,1-1.4.3,3.7,3.7,0,0,1-3.7-2.7,17.3,17.3,0,0,1-1.1-6.3,36.7,36.7,0,0,1,1.2-8.4,8.9,8.9,0,0,1,2.5-4.9,6,6,0,0,1,4.4-1.9c1.4.2,2.1.6,2.1,1.1l.2,5.4v11.2a57.1,57.1,0,0,1-1.8,25.3h0c-2.2,4.5-6.6,9.9-15.1,13.5a116.4,116.4,0,0,1-17.3,3.6c-12.7,1.5-24.6.5-35.7-3.5a196.9,196.9,0,0,1-31.9-14.9l-.6-.3a185.6,185.6,0,0,0-26.8-12.8,52.2,52.2,0,0,0-26.7-3.1V82.9q1.4-8,6-10.2H40.6c3.1,1.5,5.1,4.9,6.1,10.1V191.3a57.7,57.7,0,0,0-13.4,9.9c8.1-4.9,15.7-7.4,22.6-7.8,9.8.2,18,1.8,24.7,5a177.7,177.7,0,0,1,20.3,11.1c4.3,2.6,8.8,5.1,13.3,7.6a122.2,122.2,0,0,0,34.7,12.5c12.7,2.6,25.9,3.3,38.6-1.9a129.7,129.7,0,0,0,22.6-11.8l1.9-1.2c5.5-4,9.4-7.7,10.1-10.6a8.2,8.2,0,0,0,1.1-2.8v-.4a3.8,3.8,0,0,0-.1-1.5l-.2-16.8v-11a76.8,76.8,0,0,1,.6-10,19.9,19.9,0,0,1,.4-3,15.2,15.2,0,0,1,.3-1.9l.2-.7A.8.8,0,0,0,223.5,155.1Zm-4.2,46.4h0Z" transform="translate(-18.5 -72.7)" style="fill:#cc3533"/><path d="M166.2,146.9l-.5,29.4c0,9.1.3,14.6.8,16.4a1.9,1.9,0,0,1,.3,1c0,.6-.8.9-2.2.9a12.7,12.7,0,0,1-4.7-1.1c-1.8-.8-2.6-1.8-2.6-3a259.8,259.8,0,0,0,1.4-29.9l-.3-12.2a14.1,14.1,0,0,0-.8-3.9,4.9,4.9,0,0,0-1.4-2l-.6-.4a1,1,0,0,1-.5-.8c0-.7,1.1-1.6,3.2-2.7a13.6,13.6,0,0,1,6.2-1.6c.8,0,1.3.2,1.4.8A84.3,84.3,0,0,1,166.2,146.9Z" transform="translate(-18.5 -72.7)" style="fill:#cc3533"/><path d="M194.2,183a11.2,11.2,0,0,1-1.1,5.3,9.1,9.1,0,0,1-2.6,3.3,11.6,11.6,0,0,1-3.3,1.8,16.5,16.5,0,0,1-4.7.8,9.7,9.7,0,0,1-9.1-5.1c-2-3.3-3-7.6-3-12.8a27,27,0,0,1,3.7-13.9,11.9,11.9,0,0,1,10.9-6c4.4,0,7.4,1.6,9,5a8.9,8.9,0,0,1,1,3.6,16.5,16.5,0,0,1-.2,2.7,14.1,14.1,0,0,1-3.4,6.6,14.6,14.6,0,0,1-4.6,3.1,25.7,25.7,0,0,1-7.5,1.9c-.3,0-.5.2-.5.6a8,8,0,0,0,.4,2.1,16.7,16.7,0,0,0,1.1,2.3,5.6,5.6,0,0,0,4.8,2.3,7.4,7.4,0,0,0,5.4-2.3,9.7,9.7,0,0,0,1.9-2.9c.2-.5.4-.7.8-.7s.5.3.7.9A5,5,0,0,1,194.2,183Zm-16-10.7v2c0,.4.2.5.6.5a9.4,9.4,0,0,0,4.2-1.3,8.7,8.7,0,0,0,2.6-2.4,12,12,0,0,0,1.9-5.1v-1c0-2.9-1.1-4.3-3.2-4.3a4.4,4.4,0,0,0-3.8,2.2A16.6,16.6,0,0,0,178.2,172.3Zm3.2-21.1a1.1,1.1,0,0,1-.7.3c-.4,0-.6-.2-.6-.7v-.7a54.2,54.2,0,0,1,5.3-8.6,1.1,1.1,0,0,1,1-.4,4.6,4.6,0,0,1,2.1,1.2c.9.7,1.4,1.4,1.4,2a1.6,1.6,0,0,1-.6,1.3A52.2,52.2,0,0,1,181.4,151.2Z" transform="translate(-18.5 -72.7)" style="fill:#cc3533"/><path d="M219.2,201.4h0Z" transform="translate(-18.5 -72.7)" style="fill:#cc3533"/><path d="M229.4,190.2l.8-18.6c0-4.4-.5-7.4-1.4-9a4.3,4.3,0,0,0-1.1-1.2.7.7,0,0,1-.4-.6c0-1,1.3-1.9,3.8-2.8a18.8,18.8,0,0,1,5.5-1.4c1.1,0,1.7.3,1.8,1s-.2,4.1-.4,9-.5,10.2-.5,15.7.3,8.9.9,10.3a1.1,1.1,0,0,1,.3.8c0,.6-1,1-2.8,1a11.8,11.8,0,0,1-5.8-1.6C229.6,192.5,229.4,191.7,229.4,190.2Zm5.9-40.3h-1.8a2.8,2.8,0,0,0-2.6,1.1l-.4.2q-.9,0-.9-3.6c0-2.3.3-3.8,1-4.5a5,5,0,0,1,3.4-.9c1.7,0,2.8.3,3.4.9a4.3,4.3,0,0,1,.9,3.1,4.7,4.7,0,0,1-.7,3A2.9,2.9,0,0,1,235.3,149.9Z" transform="translate(-18.5 -72.7)" style="fill:#cc3533"/><path d="M250.1,162.5h-2.7c-.6.1-.9-.1-.9-.4a1.9,1.9,0,0,1,.5-1c3.1-3.1,8.4-4.7,15.9-4.7a22.9,22.9,0,0,1,6,.7l.8.3c.6.3.9.5.9.9s-.2.4-.6.6a12.7,12.7,0,0,0-3.8,2c-1.2,1-1.8,1.6-1.8,2l.4.6a8.9,8.9,0,0,1,3.7,4.5,19.3,19.3,0,0,1,1.4,5.5v2.5c0,5.3-1.3,9.6-4,13a13.4,13.4,0,0,1-11.1,5.1,13.1,13.1,0,0,1-6.1-1.3,11.1,11.1,0,0,1-3.8-3.1,14.2,14.2,0,0,1-1.9-3.9,20.5,20.5,0,0,1-.9-6.1,19.7,19.7,0,0,1,1-6.3,12.6,12.6,0,0,1,2.3-4.8,9.6,9.6,0,0,1,2.9-2.4,7.4,7.4,0,0,1,3.3-1.2c.8,0,1.2.2,1.2.5l-.4.8a12.1,12.1,0,0,0-2.3,5.5,26.8,26.8,0,0,0-.7,5.9,23.1,23.1,0,0,0,.6,5.2,15,15,0,0,0,1.3,3.8,5.9,5.9,0,0,0,1.7,1.8,4.6,4.6,0,0,0,2.9,1,4.5,4.5,0,0,0,3.1-1.3,8.2,8.2,0,0,0,2.1-3.5,25.6,25.6,0,0,0,1.3-8.2c0-4.5-1-8-3.1-10.4S254.2,162.5,250.1,162.5Z" transform="translate(-18.5 -72.7)" style="fill:#cc3533"/><path d="M273.6,193.2a136.5,136.5,0,0,0,1.4-20.7,118,118,0,0,0-.7-15.7c0-.6.7-1,2.2-1s3.8.9,4.5,2.8c.1.2.2.2.4.2h.4c1.5-1.7,3.9-2.6,7.1-2.6a10.5,10.5,0,0,1,7.6,2.7c1.8,1.7,2.8,4.3,2.8,7.6s-.2,4.9-.5,8.7-.5,6.5-.5,8.3c0,4.3.7,7.4,2,9.3a1.3,1.3,0,0,1,.3.8c0,.7-.7,1.1-2.1,1.1-6,0-9.1-3-9.1-8.8a46.2,46.2,0,0,1,1.4-9.4,45.9,45.9,0,0,0,1.4-9.1c0-4.2-1.6-6.4-4.9-6.4a4.3,4.3,0,0,0-3.5,1.5,6.4,6.4,0,0,0-1.4,3.5c-.1,1.3-.1,3.8-.1,7.4,0,5.5.1,10.4.5,14.5v1.7c0,1.5-.9,2.7-2.7,3.5a11.6,11.6,0,0,1-4.6,1.2C274.3,194.2,273.6,193.9,273.6,193.2Z" transform="translate(-18.5 -72.7)" style="fill:#cc3533"/><path d="M134.9,287.1v11.3c0,.4.1.7.4.7a2.6,2.6,0,0,0,1-.4c1.9-1.3,4.9-2,9.1-2,7,0,11.9,2.4,14.6,7.2a14.7,14.7,0,0,1,1.5,7.1q0,4.5-.6,12.3c-.3,5.2-.5,8.9-.5,11,0,7.6,1.1,12.7,3.3,15.2a1.6,1.6,0,0,1,.5,1.1c0,.8-1.6,1.2-4.9,1.2-9,0-13.4-4.2-13.4-12.6a55.7,55.7,0,0,1,2.3-13.7c1.5-5.9,2.3-10.3,2.3-13.1a9.4,9.4,0,0,0-2-6.4,6.8,6.8,0,0,0-5.4-2.3,9,9,0,0,0-5.5,1.5,6,6,0,0,0-2.5,3.2l-.3,1.5c-4.3,6.3-3.6,32.7.4,29.5,1.8-1.4.6,3.7.6,4q0,3.5-4.5,6a17.1,17.1,0,0,1-8.9,2.6c-1.1,0-1.6-.6-1.6-1.8l.2-2.3a327.5,327.5,0,0,0,2.5-42.3c0-5.9-.2-11.9-.7-18v-2.5a14.9,14.9,0,0,0-1.3-5.6,7.2,7.2,0,0,0-2-3l-1.1-.6a1.4,1.4,0,0,1-.8-1.1c0-1,1.8-2.4,5.5-4s6.4-2.4,8.3-2.4,3.1.5,3.2,1.3C134.7,273.7,134.9,279.5,134.9,287.1Z" transform="translate(-18.5 -72.7)" style="fill:#cc3533"/><path d="M211.5,337.4a12.6,12.6,0,0,1-1.9,6.8,13.5,13.5,0,0,1-4.1,4.4,24.3,24.3,0,0,1-5.4,2.2,28.5,28.5,0,0,1-7.4,1c-6.7,0-11.5-2.2-14.7-6.5s-4.7-9.8-4.7-16.5a29,29,0,0,1,5.8-17.8c3.9-5.2,9.8-7.8,17.6-7.8s11.9,2.2,14.4,6.5a8.9,8.9,0,0,1,1.5,4.7,17.8,17.8,0,0,1-.2,3.5,15.3,15.3,0,0,1-1.7,3.8,16.3,16.3,0,0,1-3.7,4.6,23.4,23.4,0,0,1-7.5,3.9,44.6,44.6,0,0,1-11.9,2.5c-.7,0-1,.2-1,.7a8.3,8.3,0,0,0,.8,2.7,18,18,0,0,0,1.7,3.1c1.7,1.9,4.3,2.8,7.7,2.8a13.1,13.1,0,0,0,8.6-2.8,12.6,12.6,0,0,0,3.1-3.8,1.4,1.4,0,0,1,1.2-.9c.5,0,1,.4,1.3,1.2A5.1,5.1,0,0,1,211.5,337.4Zm-25.8-13.6v2.5q0,.6.9.6a16.9,16.9,0,0,0,6.7-1.7,10.9,10.9,0,0,0,4.2-3.1,13.8,13.8,0,0,0,3.1-6.6v-1.2c0-3.7-1.7-5.5-5.1-5.5a7.5,7.5,0,0,0-6.1,2.8C187,314.7,185.7,318.7,185.7,323.8Zm5.2-27.3a2.1,2.1,0,0,1-1.2.5c-.6,0-.9-.3-.9-1l.2-.8a58.7,58.7,0,0,1,8.5-11.1,2.1,2.1,0,0,1,1.5-.5,7.9,7.9,0,0,1,3.4,1.5c1.5,1,2.3,1.8,2.3,2.6a2,2,0,0,1-1,1.7A90.4,90.4,0,0,1,190.9,296.5Z" transform="translate(-18.5 -72.7)" style="fill:#cc3533"/><path d="M221.8,350.4a167.4,167.4,0,0,0,2.3-29.7c0-11.5-.4-19-1.1-22.5q0-1.5,3.9-1.5c4,0,6.7,1.4,8,4.1a.6.6,0,0,0,.6.3,1.5,1.5,0,0,0,.8-.2c2.7-2.5,6.9-3.7,12.6-3.7s10.1,1.3,13.5,3.8,4.9,6.2,4.9,11a114.9,114.9,0,0,1-.8,12.4,116.8,116.8,0,0,0-.9,11.9c0,6.2,1.2,10.7,3.6,13.4a2.1,2.1,0,0,1,.5,1.2c0,1-1.2,1.5-3.7,1.5q-16.2,0-16.2-12.6c0-3.3.8-7.7,2.5-13.5s2.5-10.1,2.5-13c0-6.2-2.9-9.2-8.7-9.2-2.8,0-4.9.7-6.3,2.2s-1.7,3.2-2.4,4.9c-5.4,12.3-5.8,37.8.6,31.4l.3,2.5c0,2.2-1.6,3.8-4.8,5a24,24,0,0,1-8.3,1.8C222.9,351.9,221.8,351.4,221.8,350.4Z" transform="translate(-18.5 -72.7)" style="fill:#cc3533"/><path d="M281.8,346.2l1.2-26.8q0-9.4-2.1-12.9a4.1,4.1,0,0,0-1.4-1.7,1,1,0,0,1-.7-1c0-1.3,1.8-2.7,5.4-4a26,26,0,0,1,7.9-1.9c1.6,0,2.5.4,2.6,1.4s-.2,5.8-.6,13-.6,14.6-.6,22.5.4,12.8,1.3,14.7a2.6,2.6,0,0,1,.3,1.1c0,1-1.3,1.5-4,1.5a16.2,16.2,0,0,1-8.2-2.3C282.1,349.5,281.8,348.2,281.8,346.2Zm8.4-58h-2.5c-1.9,0-3.1.5-3.7,1.5a.5.5,0,0,1-.5.4c-.9,0-1.4-1.7-1.4-5.1s.5-5.6,1.4-6.5,2.6-1.4,5-1.4,4,.5,4.8,1.3a6.6,6.6,0,0,1,1.3,4.4c0,2.1-.3,3.5-1,4.3S291.9,288.2,290.2,288.2Z" transform="translate(-18.5 -72.7)" style="fill:#cc3533"/><path d="M306.5,338.4l2.2.3c4.5,0,8.9-3.8,13.3-11.6a7.3,7.3,0,0,0,.9-1.3,156.9,156.9,0,0,0-8.6-14.8c-2.4-3.7-4.1-5.8-4.9-6.3l-1.1-1c-1.1-.4-1.6-1-1.6-1.7s1.4-2.1,4.1-3.2a24,24,0,0,1,7.7-1.9c1.3-.1,2.5.8,3.7,2.8a116.1,116.1,0,0,1,7.6,14.4v.2a124.9,124.9,0,0,0,6.8-13c0-1.1.9-2,2.8-2.6a23.3,23.3,0,0,1,7-.9c2.7,0,4.1.4,4.1,1.3s-.3.8-1,1.3a10.8,10.8,0,0,0-1.9,1.4,56.7,56.7,0,0,0-5.5,6,94.8,94.8,0,0,0-8.5,12.2l-.3.7q6.6,12,7.8,13.8a33.5,33.5,0,0,1,1.9,3,31.4,31.4,0,0,0,3,3.3,9.4,9.4,0,0,0,4.1,2.7c1.4.4,2,1,2,1.6s-1.3,2.4-4,3.9a15.9,15.9,0,0,1-7.6,2.2,4.7,4.7,0,0,1-3.8-1.7c-1.6-1.9-5-7.6-10.4-17.1-4.6,7.9-7.4,12.5-8.3,13.7a13.7,13.7,0,0,1-3.4,3.4,7.1,7.1,0,0,1-4.4,1.5,5.1,5.1,0,0,1-4-1.6,5.9,5.9,0,0,1-1.7-3.2l-.3-1.6C304.2,340.4,305,338.4,306.5,338.4Z" transform="translate(-18.5 -72.7)" style="fill:#cc3533"/><text transform="translate(309.5 119.9) scale(0.92 1)" style="font-size:79.89391326904297px;fill:#cc3533;font-family:Aladin-Regular, Aladin">du</text><path d="M118.8,256.3a51.6,51.6,0,0,1-2.7,16.9,29.7,29.7,0,0,1-8.6,12.9c-3.9,3.3-9.1,5-15.6,5H68.3v52.8c1,4.5,2.9,7.5,5.8,8.9H49.9c2.9-1.4,4.9-4.6,5.8-9.5V248.5c-.9-5-2.9-8.1-5.8-9.6H74.2c-3,1.5-5,4.6-5.9,9.6,0,0-1.1,40.5,0,41s37-2.6,35.2-12.6a41.6,41.6,0,0,0,2.3-10.9,69.1,69.1,0,0,0,.5-9.7c-.4-11.9-3.6-21.3-9.5-28.1a41.2,41.2,0,0,0-21.9-13.3,48.7,48.7,0,0,0-25.7.9,41.4,41.4,0,0,0-20.9,14c-5.4,6.8-7.9,15.7-7.4,26.5A38.4,38.4,0,0,0,28.5,277c4.4,5.9,10.8,9.5,18.9,10.9,1.6-1.1,2.6-3.1,3.1-6v14.2c-.6-3.9-2.1-6.1-4.6-6.6a29.6,29.6,0,0,1-19.1-11.6,42.4,42.4,0,0,1-8.1-21.6c-1-13,1.7-23.4,8-31.2a45.4,45.4,0,0,1,24.7-15.3,61.4,61.4,0,0,1,30.7.3,52.3,52.3,0,0,1,26,15.6C115.1,233.5,118.7,243.7,118.8,256.3Z" transform="translate(-18.5 -72.7)" style="fill:#cc3533"/><polygon points="247.4 141.2 222.7 170.8 234.5 211.2 271.2 219.6 296.3 189.6 284.2 149.5 247.8 141 247.4 141.2" style="fill:#fff;stroke:#cc3533;stroke-miterlimit:10"/><path d="M314.8,262.4l-11.2-3s-.5-.1,0-.1-13.3,32.2-13.3,32.2h-1.4l-28.3-16.9-.3.2-7.3,8.9,7.5-9-19.1-31.2v-.3l28.1-19.4-.9.7,33.4-1.7h.7l1,37v-.6l-43.2,15.4h.1l8.8-50.6h0l-3.2-10.3,3.2,10.4,34.2,35.2Z" transform="translate(-18.5 -72.7)" style="fill:#fff;stroke:#cc3533;stroke-miterlimit:10"/><path d="M286.8,283.5l4.9-12a1.1,1.1,0,0,0-1.3-1.5L275,275.1a1.1,1.1,0,0,0-.3,1.9l10.4,7A1.1,1.1,0,0,0,286.8,283.5Z" transform="translate(-18.5 -72.7)" style="fill:#cc3533"/><path d="M219.3,201.5h0Z" transform="translate(-18.5 -72.7)" style="fill:#cc3533"/><path d="M223.2,201.3c-.3,4.6-5.4,9.4-11.2,13.4,5.5-4,9.4-7.7,10.1-10.6A8.2,8.2,0,0,0,223.2,201.3Z" transform="translate(-18.5 -72.7)" style="fill:#cc3533"/></svg>