<?xml version="1.0" encoding="utf-8"?>
<!-- Generator: Adobe Illustrator 25.4.0, SVG Export Plug-In . SVG Version: 6.00 Build 0)  -->
<svg version="1.1" id="Calque_1" xmlns="http://www.w3.org/2000/svg" xmlns:xlink="http://www.w3.org/1999/xlink" x="0px" y="0px"
	 viewBox="0 0 64.6 64.3" style="enable-background:new 0 0 64.6 64.3;" xml:space="preserve">
<style type="text/css">
	.st0{opacity:0.97;fill:#576BB2;}
	.st1{fill:#FFFFFF;}
</style>
<g>
	<circle class="st0" cx="32.1" cy="32.2" r="31.2"/>
	<g>
		<path class="st1" d="M46.2,19.1C46.2,19.1,46.2,19.1,46.2,19.1c-2.7-1.3-5.5-2.1-8.4-2.6c-0.1,0-0.1,0-0.1,0.1
			c-0.4,0.7-0.7,1.4-1,2.1c-3.1-0.5-6.2-0.5-9.3,0c-0.3-0.7-0.7-1.4-1.1-2.1c0,0-0.1-0.1-0.1-0.1c-2.9,0.5-5.7,1.4-8.3,2.6
			c0,0,0,0-0.1,0c-5.3,7.9-6.7,15.6-6,23.2c0,0,0,0.1,0.1,0.1c3.1,2.3,6.5,4,10.2,5.2c0.1,0,0.1,0,0.1,0c0.8-1.1,1.5-2.2,2.1-3.4
			c0-0.1,0-0.1-0.1-0.2c0,0,0,0,0,0C23.1,43.5,22,43,21,42.4c-0.1,0-0.1-0.1,0-0.2c0,0,0,0,0,0c0.2-0.2,0.4-0.3,0.6-0.5
			c0,0,0.1,0,0.1,0c6.7,3,13.9,3,20.5,0c0,0,0.1,0,0.1,0c0.2,0.2,0.4,0.3,0.6,0.5c0.1,0,0.1,0.1,0,0.2c0,0,0,0,0,0
			c-1,0.6-2.1,1.1-3.2,1.5c-0.1,0-0.1,0.1-0.1,0.2c0,0,0,0,0,0c0.6,1.2,1.3,2.3,2.1,3.4c0,0,0.1,0.1,0.1,0c3.7-1.1,7.1-2.9,10.2-5.2
			c0,0,0-0.1,0.1-0.1C53.1,33.5,50.8,25.9,46.2,19.1z M25.3,37.7c-2,0-3.7-1.8-3.7-4.1c0-2.3,1.6-4.1,3.7-4.1c2.1,0,3.7,1.9,3.7,4.1
			C28.9,35.8,27.3,37.7,25.3,37.7z M38.8,37.7c-2,0-3.7-1.8-3.7-4.1c0-2.3,1.6-4.1,3.7-4.1c2.1,0,3.7,1.9,3.7,4.1
			C42.5,35.8,40.9,37.7,38.8,37.7z"/>
	</g>
</g>
</svg>
