<?xml version="1.0" encoding="utf-8"?>
<!-- Generator: Adobe Illustrator 25.4.0, SVG Export Plug-In . SVG Version: 6.00 Build 0)  -->
<svg version="1.1" id="Calque_1" xmlns="http://www.w3.org/2000/svg" xmlns:xlink="http://www.w3.org/1999/xlink" x="0px" y="0px"
	 viewBox="0 0 64.6 64.3" style="enable-background:new 0 0 64.6 64.3;" xml:space="preserve">
<style type="text/css">
	.st0{opacity:0.97;fill:#4861AC;}
	.st1{fill:#FFFFFF;}
</style>
<g>
	<path class="st0" d="M61,32.1c0-16-12.9-28.9-28.9-28.9S3.2,16.1,3.2,32.1c0,14.4,10.6,26.4,24.4,28.6V40.5h-7.3v-8.4h7.3v-6.4
		c0-7.2,4.3-11.3,10.9-11.3c3.2,0,6.5,0.6,6.5,0.6v7.1h-3.6c-3.6,0-4.7,2.2-4.7,4.5v5.4h8l-1.3,8.4h-6.7v20.2
		C50.5,58.5,61,46.5,61,32.1z"/>
	<g>
		<path class="st1" d="M43.4,40.5l1.3-8.4h-8v-5.4c0-2.3,1.1-4.5,4.7-4.5H45V15c0,0-3.3-0.6-6.5-0.6c-6.6,0-10.9,4-10.9,11.3v6.4
			h-7.3v8.4h7.3v20.2c1.5,0.2,3,0.4,4.5,0.4c1.5,0,3-0.1,4.5-0.4V40.5H43.4z"/>
	</g>
</g>
</svg>
