<?xml version="1.0" encoding="utf-8"?>
<!-- Generator: Adobe Illustrator 25.4.0, SVG Export Plug-In . SVG Version: 6.00 Build 0)  -->
<svg version="1.1" id="Calque_1" xmlns="http://www.w3.org/2000/svg" xmlns:xlink="http://www.w3.org/1999/xlink" x="0px" y="0px"
	 viewBox="0 0 73.1 72.7" style="enable-background:new 0 0 73.1 72.7;" xml:space="preserve">
<style type="text/css">
	.st0{fill:#FFFFFF;}
</style>
<g>
	<path class="st0" d="M59,11.3H13.7c-5.1,0-9.2,4.1-9.2,9.2v31.6c0,5.1,4.1,9.2,9.2,9.2H59c5.1,0,9.2-4.1,9.2-9.2V20.5
		C68.1,15.4,64,11.3,59,11.3z M59,15.7c0.4,0,0.7,0,1.1,0.1L41,37.5c-1.2,1.3-2.9,2.1-4.6,2.1c-1.8,0-3.5-0.8-4.6-2.1L12.6,15.8
		c0.4-0.1,0.7-0.1,1.1-0.1H59z M63.8,52.1c0,2.6-2.1,4.8-4.8,4.8H13.7c-2.6,0-4.8-2.1-4.8-4.8V20.5c0-0.6,0.1-1.3,0.4-1.8l19.1,21.7
		c2,2.3,4.9,3.6,7.9,3.6c3,0,5.9-1.3,7.9-3.6l19.1-21.7c0.2,0.6,0.4,1.2,0.4,1.8V52.1z"/>
</g>
</svg>
