<?xml version="1.0" encoding="utf-8"?>
<!-- Generator: Adobe Illustrator 25.4.0, SVG Export Plug-In . SVG Version: 6.00 Build 0)  -->
<svg version="1.1" id="Calque_1" xmlns="http://www.w3.org/2000/svg" xmlns:xlink="http://www.w3.org/1999/xlink" x="0px" y="0px"
	 viewBox="0 0 73.1 72.7" style="enable-background:new 0 0 73.1 72.7;" xml:space="preserve">
<style type="text/css">
	.st0{fill:#FFFFFF;}
</style>
<g>
	<path class="st0" d="M36.4,3.9C18.9,3.9,4.6,18.2,4.6,35.7c0,6.8,2.8,13,4,15.3c0.6,1.1,1.9,1.5,3,1c1.1-0.6,1.5-1.9,1-3
		c-1-2-3.5-7.4-3.5-13.3C9,20.6,21.3,8.4,36.4,8.4c15.1,0,27.3,12.3,27.3,27.3C63.7,50.7,51.4,63,36.4,63c-5.9,0-10.6-2-12.3-2.9
		c-0.5-0.3-1.1-0.3-1.7-0.1L8.5,64.4c-1.2,0.4-1.8,1.6-1.4,2.8c0.3,0.9,1.2,1.5,2.1,1.5c0.2,0,0.4,0,0.7-0.1l13-4.2
		c2.7,1.3,7.5,3,13.5,3c17.5,0,31.7-14.2,31.7-31.7C68.1,18.2,53.8,3.9,36.4,3.9L36.4,3.9z M36.4,3.9"/>
	<path class="st0" d="M30.1,30.3c-1,0.7-1.1,2.1-0.4,3.1c0.7,1,2.1,1.1,3.1,0.4c0.7-0.5,2.5-1.9,2.2-4.4c-0.2-1.5-1.6-3.5-2.8-4.9
		c-1.7-2.1-3.2-3.3-4.3-3.7c-1.1-0.3-2.2-0.3-3.3,0.2c-2.2,0.9-3.8,2.4-4.6,4.3c-0.7,1.9-0.6,4,0.4,6c2.3,4.9,5.4,9,9.1,12.5
		c0,0,0,0,0,0c3.8,3.4,8.3,6,13.4,7.7c1,0.3,1.9,0.5,2.8,0.5c1.1,0,2.2-0.3,3.2-0.8c1.8-1,3.1-2.7,3.8-5c0.3-1.1,0.2-2.2-0.2-3.2
		c-0.5-1.1-1.9-2.4-4.1-3.9c-1.5-1-3.7-2.2-5.2-2.2c0,0,0,0,0,0c-2.5,0-3.6,1.9-4.1,2.7c-0.6,1-0.3,2.4,0.7,3c1,0.6,2.4,0.3,3-0.7
		c0.2-0.3,0.3-0.4,0.4-0.5c1.2,0.4,4.6,2.5,5.3,3.5c0,0,0,0.1,0,0.3c-0.2,0.8-0.7,1.8-1.6,2.3c-0.8,0.4-1.9,0.3-2.5,0
		c-4.5-1.6-8.5-3.9-11.9-6.8c0,0,0,0,0,0c-3.3-3-6.1-6.8-8.1-11.1c-0.3-0.7-0.6-1.6-0.3-2.5c0.4-1,1.4-1.5,2.1-1.8
		c0.1-0.1,0.2-0.1,0.3-0.1c1,0.6,3.5,3.6,4,4.8C30.5,29.9,30.4,30.1,30.1,30.3L30.1,30.3z M30.1,30.3"/>
</g>
</svg>
